<svg id="Capa_1" enable-background="new 0 0 512 512" height="512" viewBox="0 0 512 512" width="512" xmlns="http://www.w3.org/2000/svg"><g><path d="m105 182c-27.57 0-50-22.43-50-50s22.43-50 50-50 50 22.43 50 50-22.43 50-50 50z"/><g><path d="m166.414 183.199c-14.687 17.587-36.763 28.801-61.414 28.801s-46.727-11.214-61.414-28.801c-24.867 5.27-43.586 27.387-43.586 53.801v80c0 23.123 17.532 42.229 40 44.724v115.276c0 19.299 15.701 35 35 35h60c19.299 0 35-15.701 35-35v-115.276c22.468-2.495 40-21.601 40-44.724v-80c0-26.414-18.719-48.531-43.586-53.801z"/></g><g><path d="m256.013 160c-3.839 0-7.678-1.465-10.606-4.394l-60.647-60.646c-10.507-10.506-16.293-24.475-16.293-39.333 0-14.859 5.786-28.828 16.293-39.334 10.507-10.507 24.475-16.293 39.334-16.293 11.587 0 22.634 3.519 31.919 10.052 9.285-6.533 20.331-10.052 31.919-10.052 14.858 0 28.827 5.786 39.334 16.293 21.688 21.688 21.688 56.979 0 78.667l-60.646 60.646c-2.929 2.929-6.768 4.394-10.607 4.394z"/></g><g><g><path d="m511.796 374.534-23.037-138.22c-3.135-18.816-14.039-34.542-29.116-44.151-14.081 12.335-32.497 19.837-52.643 19.837s-38.562-7.502-52.643-19.837c-15.078 9.61-25.981 25.335-29.116 44.151l-23.037 138.22c-.725 4.349.501 8.797 3.351 12.161s7.036 5.305 11.445 5.305h26.198l8.854 106.246c.647 7.775 7.146 13.754 14.948 13.754h80c7.802 0 14.301-5.979 14.948-13.754l8.854-106.246h26.198c4.409 0 8.596-1.94 11.445-5.305s4.076-7.812 3.351-12.161z"/></g><path d="m407 182c-27.57 0-50-22.43-50-50s22.43-50 50-50 50 22.43 50 50-22.43 50-50 50z"/></g></g></svg>